<?xml version="1.0" encoding="UTF-8"?>
<svg id="Capa_2" data-name="Capa 2" xmlns="http://www.w3.org/2000/svg" viewBox="0 0 351.23 100.57">
  <defs>
    <style>
      .cls-1 {
        fill: #1d1d1b;
      }
    </style>
  </defs>
  <g id="Capa_1-2" data-name="Capa 1">
    <g>
      <path class="cls-1" d="M232.06,29.18c11.46-7.15-2.54-20.9-9.54-11.04-7.03,9.9,12.84,17.92,14.38,28.56,3.16,21.82-23.25,26.93-31.41,8.44-3.23,3.17-5.61,6.86-10.76,5.8-13.14-2.71,9.22-29.25,1.74-30.81-2.15-.18-2.13,1.92-2.78,3.2-3.35,6.62-6.04,14.34-11.18,19.82-6.97,7.42-22.85,14.47-24.03-1.03-2.94.06-9.33,11.42-17.79,8.84-4.53-1.38-4.54-11.82-6.2-11.81-4.61,4.86-2.27,14.3-11.44,11.87l-.57-2.9c-5.98,4.07-10.01,4.55-13.99-1.97-5.23,8.94-10.21,5.17-13-3-6.83,7.96-21.88,13.37-27,1-4.07,4.07-12.14,11.43-16.99,4.94-3.86-5.17,6.51-18.88,6.52-26.44,0-1.58.22-1.71-1.55-1.53-7.7,1.66-12.42,27.83-15.65,29.85-1.25.78-5.06-.16-6.84.16l13.16-34.83c2.93-1.92,7.02.71,8.14.63,2.4-.18,7.02-4.53,10.43-1.55,4.72,4.12-6.05,21.3-7.01,27.02-.67,4.04,1.81,2.74,4.2,1.17,10.27-6.75,10.74-25.09,20.01-27.98,22.12-6.9,13.11,26.33-5.95,21.55-1.11,14.47,14.1,6.59,19.01-.49,5.82-8.38,7.5-29.83,23.97-18.51.32-4.38,4.76-2.85,8.02-3-.59,4.45-13.08,27.94-10.99,29.99,1.09.03,2.23.16,3.29-.2,8.12-2.75,19.92-44.24,22.38-44.83l7.33.05-5.99,15.99c.56.63,12.27-5.39,13.05,5.52.6,8.35-8.17,12.67-14.63,15.48l2.17,7.96c14.28-2.08,14.68-15.22,20.96-23.89,9.4-12.99,26.07-3.59,16.43,9.43-4.17,5.62-10.22,7.14-17,6.5-.74,6.56,1.35,9.35,8.04,7.53,7.18-1.95,15.52-16.13,18.14-22.85,2.93-7.52.08-5.18-.99-10.42-1.9-9.36,10.05-11.37,9.83-2.78-.05,1.95-1.4,3.78-.88,5.8.69,2.67,6.68,3.78,6.76,9.21.06,3.91-9.28,20.11-7.89,21.51,8.19,1.35,9.95-19.33,18.55-13.05,3.8,2.78.14,2.87-.53,3.79-11.28,15.5,17.33,19.44,13.75,2-1.6-7.77-14.38-12.89-15.7-21.29-3.51-22.28,27.61-24.82,29.85-5.84.98,8.33-3.72,18.95-11.91,9.89l.06-1.42ZM79,43.57c4.75,1.41,14.02-10.34,8.47-11.99-3.8-1.13-9.53,10.86-8.47,11.99ZM112.63,31.65c-4.26,1.48-11.95,20.9-7.13,21.91s15.31-23.3,7.13-21.91ZM149.99,31.57c-6.56-1.39-12.12,5.05-13,10.99,5.97-.77,14.37-3.65,13-10.99ZM167.99,42.57c5.05,2.52,13.67-9.47,8.47-10.99-3.78-1.11-9.08,10.44-8.47,10.99Z"/>
      <path class="cls-1" d="M0,100.57c1.15-18.05,17.97-24.18,33.51-25.98,35.32-4.11,82.56-1.43,119.03-1.06,48,.48,100.26,5.14,147.99,2.09,25.56-1.63,49.78-14.38,46.46-43.54-1.6-14.01-18.47-26.57-31.7-19.7-2.81,1.46-6.88,7.83-9.1.49-1.9-6.27,3.5-8.36,8.56-9.02,16.86-2.21,33.59,12.04,35.98,28.5,4.05,27.94-17.32,44.15-42.51,47.97-51.43,7.8-120.12,1.35-173.77,2.23-2.36.04-4.55,1.04-6.92,1.08-28.24.54-56.87-.64-84.91,3.09-14.55,1.93-30.89,4.7-42.62,13.87Z"/>
      <path class="cls-1" d="M263.98,20.07h4.01s-.9,4.42-.9,4.42l-7.21,1.21c-2.6,8.57-8.75,17.89-10.15,26.66-.2,1.23-1.34,1.28.77,2.73,13.36-3.39,12.9-27.95,25.18-30.79,16.63-3.84,10.34,13.79,7.3,22.78,3.26,3.27,11.4-14.36,11.8-16.75.73-4.32-6.77-15.05,1.75-16.28,7.69-1.1,4.11,6.01,4.91,8.01,1,2.5,7.84,5.86,8.27,10.67.27,2.98-5.24,11.28-6.44,15.14-.53,1.7-2.22,5.41.3,6.16,1.64.48,2.62-.11,3.96-.89,7.26-4.26,7.17-26.12,20.65-29.38,20.9-5.07,7.37,30.73-8.19,22.33-1.51,4.03-1.74,7.66,3.48,8.09,8.14.68,14.99-7.71,16.52-15.08l2.87,1.47c-3.42,12.86-21.7,29.77-32.38,14.54-10.02,9.26-17.69,4.43-13.97-8.99,1.32-4.76,8.94-14.59,1.48-16.03-1.09,5.42-6.05,18.11-11.05,20.46-1.72.81-3.84.5-5.7,1.3-3.59,1.55-5.79,7.02-11,8.03-9.22,1.79-9.57-6.76-10.76-6.77-2.57,3.24-13.31,11.43-16.58,6.31-4.81-5.76,11.11-31.95,9.05-34.31-.51-.58-3.52,1.19-2.95-1.5.85-4.01,4.83-2.95,6.51-4.5,2.85-2.62,1.39-12.84,11.45-6.53l-2.98,7.5ZM279.98,29.58c-2.84-2.99-9.58,10.48-10.2,12.29-1.37,3.97-1.97,8.5-1.79,12.7,6.54-.5,3.98-7.54,5.46-10.08.65-1.13,2.7.27,3.54-.34,1.6-1.16,3.98-13.52,2.99-14.57ZM322.99,41.57c4.61.95,7.86-3.93,8.57-7.95,1.33-7.55-10.23,3.43-8.57,7.95Z"/>
      <path class="cls-1" d="M29.54,19.93c.57-.97,5.41-1.64,5.42-6.65.02-7.79-12.73-8.99-15.11-1.55-4.21,13.18,21.97,18.04,14.29,37.29-5.31,13.33-27.77,12.27-29.55-3-.85-7.28,5.81-15.7,11.8-7.74-14.93,12.01,10.4,20.31,11.09,4.98.53-11.64-23.2-17.86-14.28-35.18,8.17-15.85,36.64-6.63,27.71,12.7-4.34,9.38-13.92,3.51-11.37-.85Z"/>
    </g>
  </g>
</svg>